PathFileType	4	(X/Y/Z)	D:\Share\Shared_Data\Ergonomics\Sit To Stand Pertubation\S1\Perturbed_NoHarness.trc
DataRate	CameraRate	NumFrames	NumMarkers	Units	OrigDataRate	OrigDataStartFrame	OrigNumFrames	
100	100	14	18	m	100	9498	191
Frame#	Time	L_ASIS			R_ASIS			R_Pelvis			V_Sacral			L_Pelvis			Clavical			R_Acromium			L_Acromium			Sternum			Torso			R_Thigh_Med			R_Thigh_Lat			R_Thigh			R_Shank_Med			R_Shank_Lat			R_Shank			R_Heel			R_Toe			
		X1	Y1	Z1	X2	Y2	Z2	X3	Y3	Z3	X4	Y4	Z4	X5	Y5	Z5	X6	Y6	Z6	X7	Y7	Z7	X8	Y8	Z8	X9	Y9	Z9	X10	Y10	Z10	X11	Y11	Z11	X12	Y12	Z12	X13	Y13	Z13	X14	Y14	Z14	X15	Y15	Z15	X16	Y16	Z16	X17	Y17	Z17	X18	Y18	Z18	

9498	94.97	0.031430054	0.644245	-0.1049302	0.020539097	0.63058734	0.097307137	-0.063981464	0.62885828	0.12714656	-0.16683578	0.56245844	-0.0025885661	-0.066039398	0.63004425	-0.15008035	0.045777733	0.95888385	-0.0094564266	-0.0084408531	1.0371368	0.13779909	-0.054581604	0.99297919	-0.20709236	0.034541542	0.97610767	0.091879021	0.043892174	0.96228516	-0.069535995	0.37578909	0.47812671	0.015484399	0.30757098	0.43671802	0.1550325	0.17819043	0.5525412	0.10380842	0.35953412	0.062465607	0.11462574	0.32399634	0.098238045	0.17692049	0.31087527	0.31057657	0.17984612	0.2823396	0.042956173	0.13345378	0.48742099	0.054818863	0.1347403
9499	94.98	0.031677685	0.64394073	-0.1050884	0.020774147	0.63054218	0.097329132	-0.063746056	0.62887543	0.12708074	-0.16681149	0.56268726	-0.0023952954	-0.065909927	0.63007654	-0.15008115	0.048780235	0.95810712	-0.0093599138	-0.0045245409	1.0368225	0.13792889	-0.051179264	0.99325964	-0.20696509	0.037762062	0.97536157	0.0919814	0.047063015	0.96156433	-0.069500603	0.37606812	0.47853003	0.015361292	0.30757037	0.43674341	0.15489996	0.17814746	0.55260999	0.10370734	0.35920035	0.062766052	0.11454964	0.32393015	0.098268593	0.17681575	0.31086246	0.31061139	0.17971629	0.28231741	0.042931805	0.13341939	0.48736429	0.054926025	0.1347316
9500	94.99	0.031971891	0.64360992	-0.10525993	0.021050198	0.63048761	0.097373764	-0.063463463	0.62889911	0.12700762	-0.16676208	0.56295123	-0.0021936438	-0.065738678	0.6301181	-0.15009003	0.052047096	0.95726465	-0.0092521877	-0.00025679231	1.0364794	0.13806529	-0.047477818	0.99355353	-0.20680844	0.041256332	0.9745498	0.092092094	0.050510437	0.96078674	-0.069451485	0.37645538	0.47903946	0.015209045	0.30757947	0.43676849	0.15475999	0.17813017	0.5526814	0.1035972	0.35879633	0.06318932	0.11443773	0.32387576	0.098298943	0.17670549	0.31085757	0.31064728	0.17958234	0.28229767	0.042911766	0.13338052	0.4873092	0.055005718	0.1347207
9501	95	0.03231459	0.6432514	-0.10544027	0.021369379	0.63042065	0.09744445	-0.063133247	0.62893024	0.12692975	-0.16668716	0.56324567	-0.0019897816	-0.065524261	0.63016913	-0.15010672	0.055586498	0.95634637	-0.0091307144	0.0043710637	1.0361	0.13820827	-0.043465355	0.9938501	-0.20661504	0.045030113	0.97366583	0.092212044	0.054243465	0.95994476	-0.069384117	0.3769397	0.47964349	0.015030535	0.30759842	0.43679376	0.15461256	0.17814014	0.55275519	0.10348221	0.35832547	0.063738831	0.11428818	0.32383527	0.098329857	0.17658995	0.310862	0.3106846	0.17944501	0.28228116	0.042896858	0.13333751	0.48725797	0.055048687	0.13470547
9502	95.01	0.032706749	0.64286456	-0.10562386	0.021733412	0.63033716	0.097541862	-0.062756069	0.62897034	0.12685033	-0.16658737	0.56356512	-0.0017899376	-0.065266167	0.63022961	-0.15012994	0.059407204	0.95534076	-0.0089928341	0.0093678436	1.0356768	0.13835725	-0.039128387	0.99413867	-0.20637714	0.049089996	0.97270203	0.092342194	0.058271278	0.95902942	-0.069293907	0.37749741	0.48031821	0.014831871	0.3076268	0.43681958	0.15445781	0.17817726	0.55283069	0.10336726	0.3577944	0.064414536	0.11409933	0.32380994	0.098362091	0.17646948	0.31087671	0.31072354	0.17930507	0.28226831	0.042887589	0.13329097	0.4872124	0.055045372	0.13468359
9503	95.02	0.033148434	0.64244885	-0.1058046	0.022143562	0.6302323	0.097663895	-0.062333641	0.62902142	0.12677332	-0.16646422	0.56390381	-0.0015998858	-0.0649646	0.63029938	-0.15015723	0.063518604	0.95423401	-0.0088359499	0.014742746	1.0352	0.13851102	-0.034451721	0.9944082	-0.2060872	0.053443779	0.97165027	0.09248349	0.062603168	0.95803131	-0.069176216	0.37809048	0.48102521	0.014623003	0.3076637	0.43684604	0.15429588	0.17823993	0.55290662	0.10325785	0.35721301	0.065212578	0.1138695	0.32380017	0.098396362	0.1763448	0.31090182	0.3107644	0.17916319	0.28225949	0.042884079	0.13324158	0.48717435	0.054986481	0.13465277
9504	95.03	0.033638939	0.64200385	-0.10597646	0.022600555	0.63010022	0.097806122	-0.061868443	0.62908594	0.12670312	-0.16631998	0.56425604	-0.001424457	-0.064620155	0.63037854	-0.15018466	0.067930672	0.9530108	-0.0086577578	0.020505491	1.0346594	0.13866762	-0.029418442	0.99464777	-0.2057386	0.05810059	0.97050165	0.092636658	0.067248543	0.95693976	-0.069026443	0.37866458	0.48170959	0.014418143	0.30770752	0.43687329	0.15412712	0.17832478	0.55298102	0.10315987	0.35659436	0.066125481	0.11359696	0.32380545	0.098433205	0.17621683	0.31093683	0.31080716	0.17902014	0.2822547	0.042886055	0.13319019	0.4871452	0.05486364	0.13461082
9505	95.04	0.034177067	0.6415293	-0.10613387	0.023104572	0.629935	0.097962379	-0.061363434	0.62916699	0.1266447	-0.16615747	0.5646167	-0.0012671254	-0.064233429	0.6304671	-0.1502067	0.07265374	0.95165381	-0.0084564657	0.026666367	1.0340427	0.13882425	-0.02401009	0.99484668	-0.20532625	0.063070908	0.96924646	0.092802078	0.072216782	0.95574359	-0.068840096	0.37914838	0.48229916	0.014235916	0.3077561	0.43690106	0.15395207	0.17842717	0.55305133	0.10307941	0.35595328	0.067142731	0.11327975	0.32382416	0.098472954	0.17608672	0.31098062	0.31085172	0.17887663	0.2822536	0.042892818	0.1331377	0.48712589	0.054670238	0.13455597
9506	95.05	0.034761509	0.64102515	-0.10627218	0.023655296	0.62973029	0.098125679	-0.06082156	0.62926782	0.12660323	-0.16597972	0.56498187	-0.0011297218	-0.063804634	0.63056519	-0.1502162	0.077698326	0.95014447	-0.0082310228	0.033236118	1.0333367	0.13897734	-0.018207054	0.99499432	-0.20484735	0.068366333	0.9678739	0.092979553	0.077517067	0.95443079	-0.068612846	0.37945447	0.48270554	0.014099117	0.30780698	0.43692902	0.15377141	0.17854132	0.55311475	0.10302247	0.35530521	0.068251884	0.1129155	0.32385373	0.09851561	0.17595586	0.31103107	0.31089777	0.17873347	0.28225552	0.042903183	0.13308499	0.48711661	0.054402283	0.13448688
9507	95.06	0.035391335	0.64049103	-0.10638786	0.024252123	0.62947992	0.098289116	-0.060245228	0.62939191	0.12658401	-0.16578961	0.56534979	-0.0010123013	-0.063332954	0.6306731	-0.15020444	0.083074707	0.94846234	-0.0079813113	0.040225723	1.0325251	0.13912253	-0.011989108	0.99507996	-0.20430214	0.073999115	0.96637268	0.093168259	0.083158234	0.9529884	-0.06834063	0.37948239	0.48282675	0.01403397	0.30785721	0.43695651	0.15358606	0.17866083	0.55316803	0.10299466	0.35466464	0.069439804	0.11250149	0.32389066	0.09856086	0.17582594	0.31108575	0.31094479	0.17859146	0.28225946	0.042915577	0.13303307	0.487117	0.054059238	0.13440312
9508	95.07	0.036066624	0.63992627	-0.10647855	0.024894505	0.62917834	0.098446655	-0.059635597	0.62954321	0.12659217	-0.16558923	0.56572076	-0.00091317433	-0.062816025	0.63079175	-0.15016122	0.08879248	0.94658661	-0.0077082992	0.047645977	1.0315916	0.13925491	-0.005336163	0.99509241	-0.20369435	0.079981476	0.9647298	0.093366486	0.089148361	0.95140271	-0.068019768	0.37912344	0.48255243	0.014068852	0.30790393	0.43698282	0.15339725	0.17877927	0.55320813	0.10300077	0.35404337	0.070693871	0.1120346	0.32393069	0.098608055	0.17569881	0.31114169	0.31099207	0.17845161	0.28226407	0.042927998	0.13298283	0.48712589	0.053644688	0.13430511
9509	95.08	0.03678912	0.63933002	-0.10654312	0.025582468	0.62882074	0.098593819	-0.05899192	0.6297254	0.12663251	-0.16537932	0.5660976	-0.00082909894	-0.06224929	0.63092212	-0.1500755	0.094860153	0.94449567	-0.0074141068	0.055507023	1.0305168	0.13936919	0.0017708638	0.9950202	-0.20303157	0.086324867	0.96293188	0.093571648	0.095494522	0.9496593	-0.067647186	0.37826846	0.4817713	0.014232448	0.30794418	0.43700684	0.15320644	0.17889066	0.55323206	0.1030444	0.35344897	0.072002968	0.11151168	0.32396896	0.098656174	0.17557657	0.31119601	0.3110387	0.17831514	0.28226764	0.042938156	0.13293532	0.4871413	0.053166756	0.13419444
9510	95.09	0.037562927	0.63870081	-0.1065815	0.026317245	0.62840289	0.098728096	-0.058310745	0.6299422	0.12670919	-0.1651586	0.56648657	-0.00075560421	-0.061625446	0.63106622	-0.14993575	0.1012846	0.94216895	-0.0071020026	0.063817619	1.0292815	0.13945988	0.0093490553	0.99485089	-0.20232497	0.093038994	0.96096442	0.093780121	0.10220236	0.94774323	-0.06722065	0.37681671	0.48038013	0.014551423	0.30797562	0.43702753	0.1530154	0.1789902	0.55323767	0.10312762	0.35288446	0.073357956	0.11092992	0.32400052	0.098703926	0.17546155	0.31124591	0.31108377	0.1781835	0.28226819	0.042943523	0.13289146	0.48716086	0.052638126	0.13407373
9511	95.1	0.03839521	0.63803638	-0.10659457	0.027102001	0.62792169	0.098849129	-0.057585297	0.63019708	0.1268256	-0.16492303	0.56689734	-0.00068741882	-0.060933857	0.63122644	-0.14973082	0.10807069	0.93958698	-0.0067762861	0.072584457	1.0278645	0.13952165	0.017412437	0.99457129	-0.20158907	0.10013087	0.95881262	0.093987366	0.10927566	0.94563934	-0.066739075	0.37468695	0.47829495	0.01504779	0.3079967	0.43704361	0.15282617	0.17907474	0.55322375	0.10325052	0.35234772	0.074751587	0.11028751	0.32402017	0.098749779	0.17535628	0.31128955	0.31112616	0.17805847	0.28226382	0.042941471	0.13285239	0.4871814	0.052075577	0.13394673
